<svg width="65" height="65" viewBox="0 0 65 65" fill="none" xmlns="http://www.w3.org/2000/svg">
<path d="M65 55.9722C65 60.9592 60.9592 65 55.9722 65H9.02778C4.04264 65 0 60.9592 0 55.9722V9.02778C0 4.04083 4.04264 0 9.02778 0H55.9722C60.9592 0 65 4.04083 65 9.02778V55.9722Z" fill="#673AB7"/>
<path d="M48.8042 35.3888C47.6306 33.7638 45.9333 32.6444 43.7486 32.0485C43.7486 32.0485 45.5903 31.3805 47.2514 28.8888C48.2444 27.2999 48.75 25.386 48.75 23.1471C48.75 19.2652 47.3417 16.286 44.525 14.2458C41.7083 12.2055 38.5306 10.8333 33.1319 10.8333H16.25V54.1666H35.0819C40.1917 54.1305 44.0375 53.0291 46.6556 50.9166C49.2556 48.768 50.5556 45.5902 50.5556 41.3471C50.5556 38.9999 49.9778 37.0138 48.8042 35.3888ZM27.0833 18.0555C27.0833 18.0555 34.6125 18.0555 34.7569 18.0555C37.5014 18.0555 39.7222 20.2763 39.7222 23.0208C39.7222 25.7652 37.5014 27.986 34.7569 27.986C34.6125 27.986 27.0833 27.986 27.0833 27.986V18.0555ZM36.1111 46.9444H27.0833V36.111H36.1111C39.1083 36.111 41.5278 38.5305 41.5278 41.5277C41.5278 44.5249 39.1083 46.9444 36.1111 46.9444Z" fill="white"/>
</svg>
