<svg width="65" height="65" viewBox="0 0 65 65" fill="none" xmlns="http://www.w3.org/2000/svg">
<path d="M0 0V65H65V0H0ZM5.90909 5.90909H59.0909V59.0909H5.90909V5.90909ZM35.0737 15.8403C33.204 15.8403 32.1134 16.8386 32.1134 18.7025C32.1134 20.601 33.2098 21.6628 35.0737 21.6628C36.9722 21.6628 38.0629 20.601 38.0629 18.7025C38.0629 16.8328 36.9722 15.8403 35.0737 15.8403ZM44.272 18.9564C43.92 22.5226 42.7601 23.9711 39.8979 24.2942V27.2257C42.5351 27.2257 42.437 27.1218 42.437 27.5431V36.1643C42.437 39.8633 43.92 41.3636 47.844 41.3636C49.7079 41.3636 51.768 40.8327 53.1818 40.123L52.2816 37.2203C47.0073 39.217 47.2727 35.6161 47.2727 35.0679V27.2199H52.2816V23.9422H47.2727V18.9564H44.272ZM19.8797 24.2711C16.4577 24.2884 12.3318 25.6503 12.3318 30.6707C12.3318 33.0828 13.5551 34.7852 15.1651 35.593C13.1396 37.4569 12.1702 38.3225 12.1702 39.5459C12.1702 40.4461 12.5568 41.2482 13.6186 41.7272C12.4933 42.789 11.8182 43.5969 11.8182 45.0799C11.8182 47.6536 14.0976 49.1655 20.0182 49.1655C25.7426 49.1655 29.0607 47.0419 29.0607 43.2795C29.0607 38.5187 25.4252 38.7149 16.804 38.1667L17.8946 36.424C20.0817 37.0357 27.4796 37.2319 27.4796 30.9593C27.4796 29.4474 26.8679 28.3856 26.2562 27.6469L29.28 27.4219V24.6174H22.8804C22.0783 24.4096 21.0223 24.2654 19.8797 24.2711ZM31.1843 24.3L30.8265 26.9718C32.852 27.6758 33.0136 27.5777 33.0136 28.2528V37.9359C33.0136 38.6457 32.979 38.5187 30.8265 38.8073V41.3636H40.1864V38.8073L38.513 38.5822C38.034 38.5187 37.9994 38.4495 37.9994 37.9359V24.3H31.1843ZM20.1509 27.5431C24.1673 27.5431 24.2654 33.2733 20.0528 33.2733C15.8057 33.2733 16.0019 27.5431 20.1509 27.5431ZM16.5443 42.5985C22.8169 43.0487 24.1673 42.8871 24.1673 44.1451C24.1673 46.7534 15.7076 46.7476 15.7076 44.3355C15.7076 43.6892 16.123 43.1468 16.5443 42.5985Z" fill="#E67E22"/>
</svg>
