<svg width="31" height="65" viewBox="0 0 31 65" fill="none" xmlns="http://www.w3.org/2000/svg">
<path d="M28.2598 0.906304C28.1722 0.910476 28.1054 0.935514 28.0595 0.977241L20.1229 10.4035L18.5039 15.97C17.4023 15.9324 16.2673 15.9199 15.1031 15.9199C6.85354 15.9199 0.15625 16.792 0.15625 17.8769C0.15625 20.4641 30.0458 20.4641 30.0458 17.8769C30.0458 17.0758 26.4655 16.3998 21.308 16.0785L22.589 11.4968L30.0124 2.56707L30.0249 2.55455C30.1918 2.38346 29.8663 1.86187 29.3364 1.40704C28.94 1.06487 28.5227 0.897959 28.2598 0.906304ZM17.8947 18.1607L17.8655 18.2483C17.853 18.2608 17.853 18.2734 17.853 18.2859C17.853 18.4444 18.4997 18.578 19.2884 18.578C20.077 18.578 20.728 18.4444 20.728 18.2859L20.753 18.1857C20.9617 18.2608 21.0743 18.3443 21.0743 18.4444C21.0743 18.7032 20.2732 18.916 19.2759 18.9034C18.3078 18.9034 17.5024 18.7073 17.5024 18.4486C17.5024 18.3359 17.661 18.2358 17.8947 18.1607ZM29.8789 18.8951C25.9231 21.0023 4.32067 21.019 0.35237 18.9243L2.1091 34.3761C2.87272 31.9141 4.80054 28.5884 7.28334 27.5786C8.09703 27.2448 8.92323 27.249 9.69937 27.6913C10.3712 28.0627 10.9429 28.8346 11.0054 29.1434C11.1598 29.9446 10.7467 30.2617 10.4254 30.2617C10.0374 30.2617 9.7411 29.6984 9.54497 29.3646C9.01503 28.4633 8.21386 28.4257 7.35845 29.0182C6.46547 29.6316 5.68934 30.6665 5.14688 31.5678C4.48758 32.6527 3.92843 33.8461 3.59461 35.0395C3.39849 35.728 3.22323 36.8338 3.5195 37.4889C3.64885 37.7602 3.8408 37.9313 4.15376 37.9313C4.80054 37.9313 5.73941 37.1176 6.19424 36.6878C6.77426 36.1328 7.52536 35.2732 7.8091 34.7182L8.48509 32.8113C8.81891 31.9725 9.76196 32.1228 9.76196 32.8113C9.76196 34.0673 9.28626 34.4846 8.47257 37.0842C7.72148 39.4835 7.4878 40.2638 7.4878 40.2638C7.396 40.606 7.04966 41.186 6.67411 41.186C6.51972 41.186 6.40288 41.1359 6.34029 41.0358C6.21094 40.8647 6.22345 40.389 6.23597 40.2638C6.26101 39.8716 7.04966 37.5307 7.17902 37.1593C6.9203 37.4305 6.64908 37.7018 6.35281 37.973C5.65596 38.6031 4.52931 39.4251 3.57375 39.4251C3.1356 39.4251 2.85186 39.3124 2.58063 39.1288L3.56123 48.9307C3.81994 49.5441 8.63114 51.0379 14.9654 51.0379C21.3122 51.0379 26.1192 49.5357 26.3654 48.9307L27.7758 37.2845C27.0372 37.9271 26.186 38.7157 25.2429 39.108C24.5461 39.3917 22.9938 39.5753 22.9938 38.4028C22.9938 37.7602 24.1705 36.5835 24.8549 35.7572C25.0385 35.5486 25.4599 35.0312 25.4599 34.76C25.4599 34.4011 24.6879 34.4846 23.9494 35.0646C23.5363 35.3984 23.144 35.8449 22.8227 36.2622C22.2677 37.0007 21.9715 37.6392 21.7253 38.1691C20.9241 39.9175 21.1953 39.229 20.5486 40.8772C19.9018 42.5171 20.0061 42.3294 19.8767 42.6006C19.7599 42.8343 19.593 43.0346 19.3593 43.1556C19.1131 43.2807 18.7793 43.2641 18.5707 43.118C18.4538 43.0429 18.3996 42.8843 18.3996 42.6632C18.3996 42.5505 18.4163 42.442 18.4413 42.3294C18.6374 41.5783 19.4511 40.1011 20.3816 38.1065C20.5903 37.6517 20.511 37.7852 20.4818 37.8228C19.6806 38.5613 19.0714 38.9202 18.6207 39.1163C17.8696 39.4376 16.9391 39.4376 16.7472 38.6114C16.7347 38.5613 16.7347 38.5113 16.7221 38.4612C15.1949 39.592 13.58 39.9008 14.1392 37.4639C13.5467 38.4737 12.5076 39.2999 11.2391 39.2999C10.7092 39.2999 10.3211 39.1288 10.1292 38.674C9.8329 37.998 10.2961 36.838 10.7217 35.7406C10.9429 35.1856 11.2433 34.5221 11.6439 33.746C11.8525 33.3287 12.1863 33.0783 12.6245 33.191C12.6996 33.216 12.7705 33.2411 12.8331 33.2786C13.1669 33.4998 13.0376 33.8294 12.8707 34.1633C12.3783 35.0854 11.9527 35.7656 11.6689 36.7253C11.5521 37.1301 11.406 37.8353 11.8609 37.8353C12.1696 37.8353 12.4659 37.7351 12.7538 37.539C13.3464 37.1217 13.8262 36.4917 14.1893 35.8783C14.448 35.4359 14.7609 34.8559 14.9153 34.3635C14.9779 34.1549 15.0572 33.9588 15.149 33.771C15.2909 33.4622 15.4828 33.1451 15.8208 33.1451C15.9877 33.1451 16.1296 33.2077 16.2339 33.3287C16.4551 33.5999 16.405 33.8795 16.2882 34.1758C16.0295 34.8643 15.6831 35.4818 15.3952 36.2329C15.2283 36.6627 15.0447 37.2177 15.0447 37.6725C15.0447 38.0898 15.5245 37.9897 15.9251 37.8186C16.2339 37.6851 16.5469 37.4764 16.8056 37.2678C16.96 36.6669 16.9183 36.8004 20.2189 28.868C20.3858 28.4633 20.6988 28.288 21.0076 28.288C21.162 28.288 21.2913 28.3422 21.4207 28.4257C21.6418 28.5843 21.646 28.9264 21.5542 29.1851C21.4624 29.4188 21.4749 29.3479 20.97 30.4787C20.2982 31.9684 19.8601 33.0408 19.2633 34.4094C19.0172 34.9769 18.2702 36.7378 18.1409 37.1551C18.0658 37.4264 17.9698 37.8687 18.2702 37.8687C18.9671 37.8687 20.7655 36.2538 21.2579 35.7739C21.283 35.7364 21.3247 35.7239 21.3748 35.6988C21.4499 35.4652 21.5292 35.244 21.5918 35.0228C21.7754 34.5555 21.9423 34.0089 22.2803 33.6291C22.3846 33.504 22.4972 33.433 22.6266 33.433C22.9896 33.433 23.1691 33.5791 23.1691 33.9254C23.1691 34.0589 23.0814 34.5555 23.0272 34.689C23.2108 34.5054 23.3986 34.3218 23.6072 34.1382C25.5475 32.4274 26.9287 33.2995 26.9287 34.1633C26.9287 35.0729 25.7812 36.3414 25.1469 37.0425C24.9383 37.2761 24.5127 37.7059 24.5002 37.8311C24.5002 37.9897 24.617 38.0564 24.7839 38.0564C25.0426 38.0564 25.6101 37.6225 25.8188 37.4764C26.4655 36.9966 27.3418 36.258 27.9636 35.7406L29.8789 18.8951ZM4.27894 50.1116L6.20676 53.2411L6.95786 63.0179C6.95786 64.1154 10.6174 65 15.1156 65C19.6139 65 23.2734 64.1154 23.2734 63.0179L23.8701 53.141L25.6894 50.1116C20.5694 52.1687 9.60757 52.2397 4.27894 50.1116Z" fill="#E74C3C"/>
</svg>
